<svg xmlns="http://www.w3.org/2000/svg" viewBox="0 0 800 1000" role="img"><defs><filter id="soft" x="-40%" y="-40%" width="180%" height="180%"><feGaussianBlur stdDeviation="9"/></filter><clipPath id="cup"><path d="M 212 268 L 274 858 Q 274 872 288 872 L 512 872 Q 526 872 526 858 L 588 268 Z"/></clipPath><linearGradient id="glass" x1="0" y1="0" x2="1" y2="0"><stop offset="0" stop-color="#FFFFFF" stop-opacity="0.30"/><stop offset="0.18" stop-color="#FFFFFF" stop-opacity="0"/><stop offset="0.85" stop-color="#FFFFFF" stop-opacity="0"/><stop offset="1" stop-color="#000000" stop-opacity="0.07"/></linearGradient></defs><rect width="800" height="1000" fill="#F2EFE9"/><ellipse cx="400" cy="928" rx="150" ry="26" fill="#000" opacity="0.12" filter="url(#soft)"/><g transform="translate(0 40)"><path d="M 300 430 L 400 900 L 500 430 Z" fill="#C98F3F" stroke="#8F5322" stroke-width="4"/><g clip-path="url(#coneClip)"><path d="M 240 420 L 340 910" stroke="#8F5322" stroke-width="4" opacity="0.6"/><path d="M 560 420 L 460 910" stroke="#8F5322" stroke-width="4" opacity="0.6"/><path d="M 286 420 L 386 910" stroke="#8F5322" stroke-width="4" opacity="0.6"/><path d="M 514 420 L 414 910" stroke="#8F5322" stroke-width="4" opacity="0.6"/><path d="M 332 420 L 432 910" stroke="#8F5322" stroke-width="4" opacity="0.6"/><path d="M 468 420 L 368 910" stroke="#8F5322" stroke-width="4" opacity="0.6"/><path d="M 378 420 L 478 910" stroke="#8F5322" stroke-width="4" opacity="0.6"/><path d="M 422 420 L 322 910" stroke="#8F5322" stroke-width="4" opacity="0.6"/><path d="M 424 420 L 524 910" stroke="#8F5322" stroke-width="4" opacity="0.6"/><path d="M 376 420 L 276 910" stroke="#8F5322" stroke-width="4" opacity="0.6"/><path d="M 470 420 L 570 910" stroke="#8F5322" stroke-width="4" opacity="0.6"/><path d="M 330 420 L 230 910" stroke="#8F5322" stroke-width="4" opacity="0.6"/><path d="M 516 420 L 616 910" stroke="#8F5322" stroke-width="4" opacity="0.6"/><path d="M 284 420 L 184 910" stroke="#8F5322" stroke-width="4" opacity="0.6"/></g><defs><clipPath id="coneClip"><path d="M 300 430 L 400 900 L 500 430 Z"/></clipPath></defs><ellipse cx="400" cy="430" rx="104" ry="26" fill="#B0702F" stroke="#8F5322" stroke-width="4"/><g transform="translate(400 320) scale(1.15)"><path d="M 0 -150 C 26 -142 30 -118 12 -106 C 52 -104 62 -72 34 -58 C 84 -54 92 -14 52 -2 C 96 6 100 48 54 58 L -54 58 C -100 48 -96 6 -52 -2 C -92 -14 -84 -54 -34 -58 C -62 -72 -52 -104 -12 -106 C -30 -118 -26 -142 0 -150 Z" fill="#FBF6EC" stroke="#E4D8C4" stroke-width="4"/><path d="M -40 -54 q 40 -14 78 0 M -50 -2 q 50 -16 100 0 M -34 -104 q 34 -10 66 0" stroke="#E9DCC6" stroke-width="6" fill="none" stroke-linecap="round"/></g></g></svg>
